<svg xmlns="http://www.w3.org/2000/svg" viewBox="0 0 230.1 77.42"><defs><style>.cls-1{fill:#00274c;}</style></defs><g id="Layer_2" data-name="Layer 2"><g id="Layer_1-2" data-name="Layer 1"><path class="cls-1" d="M80.43,48.58c-4.32,3-8.15,1-10.05-2.66-.87-1.65-1.86-3.23-2.87-5-.55,1.25-1.06,2.49-1.61,3.7-1.23,2.7-2.38,5.45-3.76,8.07s-4.77,1.35-5.91-.32c-2.13-3.12-2.69-6.69-3-10.34a57.55,57.55,0,0,0-.67-5.93c-.83,2.88-1.67,5.76-2.47,8.65-1.19,4.31-2.34,8.63-3.52,12.95-.25.91-2.45,1.51-3.12.71a8.42,8.42,0,0,1-2-3.33c-.67-3.05-1-6.17-1.45-9.26-.24-1.69-.4-3.38-.54-4.58-1.23,4.22-2.57,8.83-3.93,13.44a14.53,14.53,0,0,1-1,2.38c-1.17,2.25-2.85,2.58-4.61.82a6.86,6.86,0,0,1-1.68-2.59c-.74-2.28-1.25-4.63-1.87-7a2.43,2.43,0,0,0-.36-.64c-1.25,3.31-2.51,6.62-3.74,9.94a72.75,72.75,0,0,1-2.53,6.85c-1.38,2.84-4.17,4.07-6.47.47-1.87-2.93-2.5-6.15-3-9.66C8.47,59,6.8,62.6,5,66.08,4.06,67.8,2.88,69.37,1.82,71a3.22,3.22,0,0,1-.32.58,11.75,11.75,0,0,1-.9.81A5.32,5.32,0,0,1,0,71.08c0-.25.31-.56.46-.86,1.57-3,3.19-6.08,4.68-9.17a71.46,71.46,0,0,0,4-9c.61-1.91.36-4.13.38-6.21,0-4.83,0-9.66.06-14.48a69.21,69.21,0,0,1,.66-8.75,92.7,92.7,0,0,1,2-9.12c.35-1.35,1.07-2.75,2.76-2.66,1.46.07,2.25,1.16,3,2.45,1.22,2.21,1,4.61.95,6.88a70.32,70.32,0,0,1-1.05,12.57A77.57,77.57,0,0,1,14.09,44.6c-1.56,4.17-2.33,8.23-1,12.67.61,2,.87,4.1,2,5.91.36.54.82,1,1.21,1.48,1.83-.84,1.76-2.59,2.26-4,1.85-5.08,3.68-10.18,5.37-15.32.78-2.38,1.16-4.88,1.86-7.29.17-.58.88-1,1.34-1.47.32.46.89.91.92,1.39.13,2.17,0,4.35.14,6.52a33.1,33.1,0,0,0,1.87,9.8,8.3,8.3,0,0,0,1,2,1.22,1.22,0,0,0,2.11-.52c.93-3.21,1.94-6.4,2.69-9.65.83-3.63,1.41-7.32,2.09-11,.22-1.22.42-2.44.65-3.79l-7.37,1.7-.37-.62c.39-.41.71-1,1.18-1.18,2.11-.7,4.28-1.24,6.41-1.92.28-.09.55-.69.58-1.08.35-4.49.71-9,.94-13.47.07-1.28.42-2,2.22-2.09,0,1.74.15,3.47.07,5.2-.15,3.23-.42,6.45-.63,9.68-.06,1,.47.88,1.16.67,3.08-1,6.16-1.87,9.13-2.77.29-3.48.55-6.77.85-10.06s.62-6.57.93-9.8c1.83-.28,2.81.64,2.65,2.14-.36,3.21-.71,6.43-1,9.66-.18,2.25-.18,4.51-.26,6.85A13.19,13.19,0,0,1,58,23.18a2.41,2.41,0,0,1,2,.7c.62,1.06-.59,1.17-1.23,1.46-1.3.59-2.64,1.12-3.9,1.66a58.3,58.3,0,0,0,.32,6.21c.68,4.45,0,9.07,1.55,13.4A27.68,27.68,0,0,0,58.92,51c.53.94,1.24.85,1.65-.19,1.76-4.36,3.62-8.7,5.15-13.14.4-1.17-.09-2.76-.49-4.06a55,55,0,0,1-2.18-17.28A33.8,33.8,0,0,1,66.18,1.63,3.09,3.09,0,0,1,68.26,0a3.39,3.39,0,0,1,2.22,1.48c1.77,2.42,1.6,5.33,1.65,8.12.08,3.89.16,7.79-.11,11.66a49.77,49.77,0,0,1-1.47,7.06C70,30.87,69.12,33.41,69,36c-.06,1.55,1,3.21,1.75,4.71,1.16,2.34,2,5,4.54,6.28a3.77,3.77,0,0,0,2.87-.22,2.57,2.57,0,0,0,1.73-2.67c0-5.43-.55-11,2.11-16.07a24.92,24.92,0,0,1,2.34-4.09c1-1.22,2.81-.79,3.71.51,2.37,3.41,1.57,7,.41,10.45a73.21,73.21,0,0,1-3,7.16,18.78,18.78,0,0,1-1.66,2.75A3.76,3.76,0,0,0,85.28,50a3.52,3.52,0,0,0,3.65-.46A36.16,36.16,0,0,0,99.85,37.5a4.28,4.28,0,0,1,1.54-1.41c.28-.17,1.06-.11,1.16.09.27.52.59,1.3.38,1.75a27,27,0,0,1-5.86,8.62c-1,1-1.8,2.35-3,3.09a29.75,29.75,0,0,1-6.85,3.5c-2.15.67-4.53-.48-5.75-2.93A16.81,16.81,0,0,0,80.43,48.58ZM52,27.85c-2.85.86-5.28,1.65-7.74,2.31-2.85.78-3,.74-2.8,3.5q.7,9.33,1.68,18.63a24.87,24.87,0,0,0,1.33,4.27C47.06,46.73,49.51,37.4,52,27.85ZM14.78,12.92c-4,10.14-3.16,20.64-2.86,31.11a57.75,57.75,0,0,0,2.2-6.28A74,74,0,0,0,16.66,27.4a57.2,57.2,0,0,0,0-10.55C16.59,15.59,16.86,13.85,14.78,12.92ZM68.38,2.49C64.66,9,64.8,22,67.38,30.59A68.34,68.34,0,0,0,68.38,2.49ZM82.8,41.42c1.09-2.63,2.26-5.23,3.26-7.89s1.27-5.17-.11-7.68C82.4,30.5,82.57,36,82.8,41.42Z"/><path class="cls-1" d="M135.29,42.69c1.47,1,2.77,2,4.17,2.8,4,2.37,7.14.73,9.89-1.83a2.08,2.08,0,0,0,.42-2.26c-1.2-4.4-.8-8.55,2.23-12.21a2.93,2.93,0,0,1,3.51-1,3.09,3.09,0,0,1,2.31,3.22A15.08,15.08,0,0,1,155.19,39a39.1,39.1,0,0,0-1.88,3.78c1.72,1.57,3.64,1.39,6.22-.71a16.27,16.27,0,0,0,5.61-8.92c.72-3,2.64-4.88,4.9-6.59,1.61-1.22,2.94-.91,3.94.82.35.6,1,1.17,1,1.78a7.69,7.69,0,0,1-.53,2.38c-.64-.38-1.3-.72-1.9-1.15-.17-.13-.15-.52-.36-1.38-1,.9-2.2,1.43-2.45,2.25a67.1,67.1,0,0,0-2,8.75c-.49,3.09,1.73,4.6,4.47,3.28,2.36-1.14,3.74-3.16,5.31-5.05,4.94-5.92,6.62-13.12,8.16-20.41.48-2.26.91-4.6,2.57-6.39,1.75.33,1.63,1.21,1.32,2.64-.75,3.44-1.19,7-1.75,10.45-.27,1.71-.55,3.41-.79,5.13a9.86,9.86,0,0,0,.05,1.48l13.77-7.08c.05,2.43-1.67,3.25-3,4.07-3.2,1.92-6.56,3.59-9.81,5.43a1.44,1.44,0,0,0-.3,1.35c2.4,2.84,5,5.46,9,5.91a8.72,8.72,0,0,0,8.12-3.38c1.84-2.24,3.56-4.58,5.45-6.78.32-.38,1.49-.6,1.75-.35a2.55,2.55,0,0,1,.82,2c-1,3.15-.74,6.36-.76,9.56,0,1.55,0,3.1,0,4.93,2.37-1,4.62-2,6.92-2.84q4.2-1.59,8.48-3a2.81,2.81,0,0,1,1.73.26c1,.39,1.29,1,.32,1.81a9.45,9.45,0,0,1-2.1,1.39c-3.08,1.23-6.21,2.35-9.31,3.52a49.35,49.35,0,0,0-5.65,2.2,4.17,4.17,0,0,0-1.66,2.37,11.76,11.76,0,0,1-10.16,8.7,4.28,4.28,0,0,1-4.23-3c-.66-1.86,0-2.89,1.71-4.3,2.93-2.35,6.33-3.71,9.61-5.39.63-.32.78-1.94.84-3,.13-2.5.08-5,.11-7.8-7.59,8.44-15,7.75-22.47-.15-.12,3.51-.2,6.87-.36,10.23a41,41,0,0,1-.52,5.08A2,2,0,0,1,184,54.06c-.73.17-1.58,0-1.55-1.11,0-2.36,0-4.73.16-7.08.25-3.66.65-7.32,1-11l-.51-.18c-1,1.38-1.87,2.78-2.86,4.12-1.77,2.38-3.59,4.71-6.3,6.11a11,11,0,0,1-2.6,1.24,5.09,5.09,0,0,1-6-5.35c0-.43,0-.86,0-1.12a40.73,40.73,0,0,1-4.7,4.68c-2.4,1.75-5.12,2.83-8.17,1.22a1.61,1.61,0,0,0-1.5.11,11,11,0,0,1-8.55,3.32c-3.38-.21-5.88-1.88-8.13-4-1.62.69-3.17,1.43-4.77,2-2.23.79-4.5.07-5.11-2a7,7,0,0,1,.47-4.57,3.76,3.76,0,0,1,4.23-2,41.73,41.73,0,0,1,4,1.28,16.33,16.33,0,0,0,1.75-9.22,22.51,22.51,0,0,0-.54-2.79,21.86,21.86,0,0,0-3.77.92c-2.48,1.09-3.82,3.26-4.94,5.64a36.14,36.14,0,0,0-3.31,11.19c-.75,6.19-2.05,12.3-2.89,18.48a59.72,59.72,0,0,0-.09,7.69,35.19,35.19,0,0,1-.07,4.24c-.07.57-.78,1-1.2,1.58-1.79-1.68-1.86-3.7-1.9-5.62-.14-7-.32-14-.18-21,.15-7.63.64-15.26,1-22.9.06-1.26.22-2.52.34-3.84,1.36.16,1.86.71,1.8,1.92-.15,2.82-.23,5.64-.27,8.46,0,3.58,0,7.15,0,10.73a9.64,9.64,0,0,0,.07,2.51c.36-2.19.67-4.4,1.11-6.58,1.1-5.39,2.82-10.48,7.45-14a9.24,9.24,0,0,1,7.74-1.8,3.78,3.78,0,0,1,2.18,2.51A23.5,23.5,0,0,1,135.29,42.69Zm71.91,9.37c-.54.34-1,.66-1.49.93-1.94,1-3.92,2-5.83,3.13a1.41,1.41,0,0,0-.39,1.32,1.5,1.5,0,0,0,1.27.64C203.33,57.46,206.69,55.43,207.2,52.06ZM152,39.52a27.33,27.33,0,0,0,2.35-4.59c.44-1.47,1.86-3.14.09-4.76A8.78,8.78,0,0,0,152,39.52Zm-25,5.12c3-.36,4-.34,4.68-2.4-1.37-1.34-3.47-2.05-4.28-1.43C126,41.84,126,42.71,127,44.64Z"/><path class="cls-1" d="M29.5,23.53c0,1.93-.81,2.52-2.93,2.68-2.31.17-1.58-1.78-1.84-2.71A2.57,2.57,0,0,1,27,20.45,2.77,2.77,0,0,1,29.5,23.53Z"/></g></g></svg>