<svg xmlns="http://www.w3.org/2000/svg" viewBox="0 0 205.6 152.91"><defs><style>.cls-1{fill:#00274c;}.cls-2{fill:#84a2a7;}.cls-3{fill:#feda29;}.cls-4{fill:#fff;}</style></defs><g id="Layer_2" data-name="Layer 2"><g id="Layer_1-2" data-name="Layer 1"><path class="cls-1" d="M105.33,20.59c-1.93-2.5-4.81-3.11-7-5.2a14.23,14.23,0,0,1,3-1,53.93,53.93,0,0,1,6.34-.71,7.34,7.34,0,0,0-.61,3.54,4.49,4.49,0,0,1,0,.82,2.9,2.9,0,0,1-.26.75A8.56,8.56,0,0,1,105.33,20.59Z"/><path class="cls-2" d="M176.92,59.84v0a67.7,67.7,0,0,0-4-11.72c-.67-1.56-2.88-6-3.78-7.67-1.31-2.38-2.54-4.9-4.08-7.42-.66-1.09-2.16-3.16-2.86-4.26-1.76-2.74-3.28-4.87-5.25-7.51-1.62-2.17-3.53-3.75-5.28-5.74a67.23,67.23,0,0,0-6-5.86c-1.92-1.72-3.33-3.45-5.34-4.74a43,43,0,0,0-7.19-3.06C130,.66,126.59-.31,123.32.09a23.83,23.83,0,0,0-4,1.11,25.59,25.59,0,0,0-4.65,2c-12.43,7-14,22.88-12.18,36.4l.1-.06c21-12.83,59.26,18.48,51.84,31.27,1.73-.15,3.6-.56,5.42-.81,3.38-.47,12.61-3.42,15-4.29L197,95.35,200.27,87l5.33-8.65Z"/><path class="cls-3" d="M102.49,39.38a7.25,7.25,0,0,0,0,1c.75,5,2.05,13.18,2.75,14.81.4.93,9.08,11.34,12,12.69a92.83,92.83,0,0,0,11.69,4.34c1.4.16,19.53,3.7,30.57-2C166.39,56,125.27,25,102.49,39.38Z"/><path class="cls-1" d="M116,12.45a7.25,7.25,0,0,0,3.37,1.45,7.24,7.24,0,0,0,2.92.27,4.51,4.51,0,0,1-1.3,1,6,6,0,0,1-6.59-1.41,2,2,0,0,1-.5-.6,2.13,2.13,0,0,1-.14-.51,7.45,7.45,0,0,1-.06-3C114.2,10.06,115.28,11.79,116,12.45Z"/><path class="cls-4" d="M69.42,116.94c1.55.86,2.92,1.71,4.38,2.41,4.17,2,7.15.09,9.64-2.69a2.06,2.06,0,0,0,.22-2.29c-1.57-4.25-1.54-8.4,1.14-12.3a2.91,2.91,0,0,1,3.4-1.28,3.07,3.07,0,0,1,2.57,3,14.89,14.89,0,0,1-1.94,7.73,37.41,37.41,0,0,0-1.53,3.92c1.84,1.41,3.73,1,6.1-1.26a16.2,16.2,0,0,0,4.79-9.34c.45-3,2.18-5.07,4.27-7,1.49-1.35,2.84-1.16,4,.47.39.56,1,1.07,1.16,1.68a7.82,7.82,0,0,1-.32,2.4c-.67-.32-1.36-.6-2-1-.18-.11-.19-.51-.47-1.34-.94,1-2.07,1.61-2.24,2.44a68,68,0,0,0-1.19,8.87c-.22,3.1,2.12,4.4,4.72,2.85,2.24-1.34,3.43-3.46,4.83-5.47,4.37-6.31,5.4-13.61,6.29-21,.27-2.28.5-4.64,2-6.57,1.76.17,1.72,1.06,1.54,2.5-.44,3.49-.57,7-.82,10.52-.12,1.72-.24,3.44-.33,5.16a9.24,9.24,0,0,0,.18,1.47l13-8.24c.26,2.4-1.38,3.37-2.66,4.3-3,2.2-6.19,4.14-9.25,6.26a1.42,1.42,0,0,0-.18,1.37c2.63,2.6,5.42,5,9.41,5.07a8.69,8.69,0,0,0,7.75-4.07c1.63-2.38,3.14-4.86,4.81-7.21.29-.4,1.43-.72,1.7-.5a2.54,2.54,0,0,1,1,1.94c-.69,3.2-.18,6.36.09,9.54.13,1.54.26,3.07.42,4.89,2.26-1.18,4.41-2.36,6.61-3.42q4-2,8.15-3.72a2.77,2.77,0,0,1,1.74.11c1,.3,1.38.92.48,1.76a9.39,9.39,0,0,1-2,1.57C158,112,155,113.43,152,114.86a49.46,49.46,0,0,0-5.41,2.68,4.17,4.17,0,0,0-1.43,2.5,11.71,11.71,0,0,1-9.32,9.53,4.28,4.28,0,0,1-4.46-2.65c-.81-1.79-.28-2.87,1.32-4.41,2.7-2.59,5.95-4.25,9.05-6.2.6-.37.61-2,.58-3-.09-2.49-.36-5-.58-7.75-6.78,9-14.15,9-22.3,1.84.19,3.48.4,6.83.54,10.18a39.13,39.13,0,0,1-.06,5.08,2,2,0,0,1-1.21,1.28c-.71.23-1.57.15-1.64-1-.16-2.34-.42-4.69-.46-7-.08-3.66,0-7.32,0-11l-.52-.14c-.82,1.45-1.61,2.93-2.48,4.35-1.54,2.51-3.14,5-5.71,6.61a10.86,10.86,0,0,1-2.46,1.46A5.08,5.08,0,0,1,99,112.45c0-.42-.09-.85-.12-1.1a40.28,40.28,0,0,1-4.25,5.05c-2.22,1.95-4.83,3.26-8,1.93a1.66,1.66,0,0,0-1.49.24A10.94,10.94,0,0,1,77,122.62c-3.37.09-6-1.35-8.42-3.26-1.55.82-3,1.7-4.56,2.4-2.14,1-4.45.46-5.24-1.57a6.92,6.92,0,0,1,.06-4.58,3.74,3.74,0,0,1,4-2.37c1.33.16,2.62.58,4.09.91a16.22,16.22,0,0,0,.92-9.3,22,22,0,0,0-.78-2.71,21.88,21.88,0,0,0-3.66,1.24c-2.37,1.3-3.5,3.58-4.4,6a35.86,35.86,0,0,0-2.29,11.39c-.2,6.21-1,12.39-1.24,18.59a59.8,59.8,0,0,0,.58,7.64,35.07,35.07,0,0,1,.31,4.21c0,.57-.68,1.11-1,1.67-1.93-1.51-2.18-3.5-2.38-5.41-.76-6.94-1.56-13.89-2-20.86-.52-7.59-.71-15.2-1-22.8-.06-1.26,0-2.53,0-3.84,1.36,0,1.9.53,2,1.74q.15,4.22.48,8.42c.27,3.55.63,7.09.92,10.64a10.19,10.19,0,0,0,.29,2.49c.17-2.21.28-4.43.53-6.62.61-5.45,1.87-10.66,6.15-14.54a9.2,9.2,0,0,1,7.52-2.48A3.76,3.76,0,0,1,70.12,102,23.42,23.42,0,0,1,69.42,116.94Zm72.16,3c-.51.38-.93.74-1.4,1-1.84,1.2-3.71,2.36-5.51,3.62a1.4,1.4,0,0,0-.27,1.34,1.49,1.49,0,0,0,1.32.53C138.21,125.58,141.36,123.28,141.58,119.89Zm-55.85-7.57a27.35,27.35,0,0,0,1.92-4.77c.3-1.49,1.56-3.27-.33-4.72A8.7,8.7,0,0,0,85.73,112.32ZM61.35,119.6c3-.63,4-.69,4.43-2.79-1.48-1.21-3.63-1.72-4.38-1C60.17,116.91,60.16,117.78,61.35,119.6Z"/><path class="cls-4" d="M78.45,84.48c-4.16,3-8,1.2-10-2.3-.9-1.59-1.92-3.12-3-4.81-.49,1.25-1,2.48-1.47,3.69-1.12,2.7-2.17,5.44-3.44,8.07S55.93,90.6,54.75,89c-2.19-3-2.85-6.5-3.27-10.08a53.68,53.68,0,0,0-.84-5.82c-.72,2.87-1.47,5.73-2.16,8.59-1,4.29-2,8.58-3.06,12.86-.21.9-2.36,1.56-3.05.8a8.28,8.28,0,0,1-2.07-3.22c-.76-3-1.2-6-1.73-9.07-.29-1.65-.5-3.31-.67-4.49-1.08,4.2-2.25,8.78-3.45,13.36a13.51,13.51,0,0,1-.88,2.37c-1.08,2.25-2.73,2.63-4.52.95a6.67,6.67,0,0,1-1.73-2.49c-.8-2.22-1.37-4.52-2.06-6.78a2.4,2.4,0,0,0-.38-.63c-1.12,3.3-2.25,6.6-3.36,9.91-.76,2.27-1.31,4.64-2.28,6.81-1.27,2.85-4,4.14-6.35.67-1.93-2.82-2.65-6-3.24-9.41C8,97,6.42,100.59,4.73,104.08c-.83,1.72-2,3.3-2.94,4.94a4.48,4.48,0,0,1-.29.58c-.27.3-.57.55-.86.83A5.07,5.07,0,0,1,0,109.15c-.06-.24.28-.56.42-.85,1.45-3.06,2.95-6.09,4.32-9.18a69.65,69.65,0,0,0,3.65-9c.54-1.91.22-4.08.17-6.13-.1-4.75-.34-9.5-.39-14.25a69.05,69.05,0,0,1,.37-8.63,90.36,90.36,0,0,1,1.68-9c.3-1.34,1-2.74,2.63-2.71,1.44,0,2.25,1.08,3,2.32C17.11,53.83,17,56.2,17,58.44a69.29,69.29,0,0,1-.64,12.4A75.72,75.72,0,0,1,13,82.65c-1.4,4.15-2,8.17-.57,12.5.66,1.95,1,4,2.2,5.75a17.09,17.09,0,0,0,1.23,1.43c1.77-.89,1.65-2.61,2.1-4,1.66-5.06,3.3-10.14,4.8-15.25.7-2.37,1-4.85,1.61-7.24.14-.57.83-1,1.27-1.49.33.45.9.87.95,1.35.19,2.12.19,4.27.34,6.41a32.7,32.7,0,0,0,2.15,9.59,7.49,7.49,0,0,0,1.05,1.9A1.2,1.2,0,0,0,32.22,93c.81-3.18,1.71-6.35,2.34-9.58.7-3.6,1.15-7.24,1.71-10.87.18-1.21.33-2.41.52-3.75l-7.2,1.9-.38-.59c.37-.42.66-1,1.12-1.2,2.06-.76,4.18-1.35,6.25-2.1.28-.1.52-.7.54-1.07.2-4.43.41-8.86.5-13.29,0-1.26.35-2,2.12-2.13.08,1.72.25,3.42.23,5.11,0,3.19-.21,6.37-.31,9.56,0,1,.49.85,1.16.61,3-1,6-2,8.9-3,.17-3.44.33-6.69.52-9.94s.4-6.48.61-9.67c1.78-.33,2.78.54,2.67,2-.25,3.18-.5,6.36-.65,9.54-.1,2.22,0,4.45,0,6.76a12.67,12.67,0,0,1,2.75-1.16,2.38,2.38,0,0,1,2,.62c.64,1-.55,1.17-1.16,1.48-1.27.63-2.56,1.19-3.8,1.75a58.56,58.56,0,0,0,.52,6.1c.8,4.37.27,8.93,1.94,13.15a28.12,28.12,0,0,0,2.24,4.28c.56.91,1.25.8,1.63-.23,1.59-4.36,3.29-8.68,4.65-13.1.36-1.16-.17-2.72-.6-4a54.37,54.37,0,0,1-2.7-16.94A33.32,33.32,0,0,1,63,38.72a3,3,0,0,1,2-1.66,3.3,3.3,0,0,1,2.24,1.39c1.81,2.32,1.74,5.19,1.88,7.93.2,3.83.4,7.66.26,11.48a48.29,48.29,0,0,1-1.23,7c-.46,2.53-1.25,5.06-1.26,7.6,0,1.52,1.07,3.11,1.86,4.57,1.22,2.27,2.16,4.85,4.67,6a3.72,3.72,0,0,0,2.82-.31,2.53,2.53,0,0,0,1.62-2.68c-.22-5.34-.89-10.79,1.57-15.88a24.26,24.26,0,0,1,2.17-4.1c.94-1.24,2.74-.86,3.67.38,2.44,3.29,1.76,6.81.73,10.28a70.71,70.71,0,0,1-2.73,7.13,18.77,18.77,0,0,1-1.54,2.77,3.68,3.68,0,0,0,1.6,5.09,3.44,3.44,0,0,0,3.58-.56A35.46,35.46,0,0,0,97.21,73a4.5,4.5,0,0,1,1.47-1.44c.28-.18,1-.13,1.15,0,.28.51.62,1.27.43,1.72A26.45,26.45,0,0,1,94.77,82c-1,1-1.71,2.37-2.84,3.14a29.3,29.3,0,0,1-6.64,3.65c-2.09.73-4.46-.32-5.75-2.69A16.46,16.46,0,0,0,78.45,84.48ZM49.83,65c-2.78.93-5.14,1.78-7.54,2.52-2.78.85-2.94.82-2.65,3.52q1,9.17,2.24,18.29a24.44,24.44,0,0,0,1.44,4.16C45.55,83.71,47.67,74.45,49.83,65ZM12.72,51.46c-3.66,10.1-2.46,20.41-1.84,30.7a55.86,55.86,0,0,0,2-6.25A73.62,73.62,0,0,0,15,65.64a55.47,55.47,0,0,0-.31-10.38C14.59,54,14.8,52.3,12.72,51.46Zm52.42-12c-3.45,6.56-2.91,19.27-.1,27.68A67.24,67.24,0,0,0,65.14,39.5ZM80.55,77.36c1-2.62,2.07-5.22,3-7.87s1.09-5.13-.35-7.55C79.82,66.62,80.16,72,80.55,77.36Z"/><path class="cls-4" d="M26.67,62.81c0,1.82-.77,2.36-2.77,2.51-2.17.16-1.48-1.67-1.72-2.55a2.42,2.42,0,0,1,2.14-2.86A2.6,2.6,0,0,1,26.67,62.81Z"/></g></g></svg>